<svg xmlns="http://www.w3.org/2000/svg" xmlns:xlink="http://www.w3.org/1999/xlink" width="23.513" height="33.847" viewBox="0 0 23.513 33.847">
  <defs>
    <clipPath id="clip-path">
      <rect x="1" width="23.513" height="33.847" fill="none"/>
    </clipPath>
  </defs>
  <g id="Scroll_Group_1" data-name="Scroll Group 1" transform="translate(-1)" clip-path="url(#clip-path)" style="isolation: isolate">
    <rect id="Rectangle_14" data-name="Rectangle 14" width="11" height="22" rx="5" transform="translate(8.037) rotate(3)" fill="#3bb99b"/>
    <path id="Path_3" data-name="Path 3" d="M0-.592A8.717,8.717,0,0,0,.659,2.032,13.023,13.023,0,0,0,2.789,6.385,11.046,11.046,0,0,0,10.376,10a10.9,10.9,0,0,0,7.369-3.1,14.4,14.4,0,0,0,2.9-5.49,9,9,0,0,0,.241-2.01" transform="translate(2.628 17.241) rotate(3)" fill="none" stroke="#707070" stroke-width="4"/>
    <line id="Line_1" data-name="Line 1" y2="8" transform="translate(12.195 25.753) rotate(3)" fill="none" stroke="#707070" stroke-width="4"/>
  </g>
</svg>
